<svg id="visual" viewBox="0 0 900 600" width="900" height="600" xmlns="http://www.w3.org/2000/svg" xmlns:xlink="http://www.w3.org/1999/xlink" version="1.1"><path d="M0 25L12.5 26C25 27 50 29 75 32C100 35 125 39 150 38C175 37 200 31 225 28C250 25 275 25 300 28C325 31 350 37 375 40C400 43 425 43 450 44C475 45 500 47 525 44C550 41 575 33 600 34C625 35 650 45 675 47C700 49 725 43 750 38C775 33 800 29 825 27C850 25 875 25 887.5 25L900 25L900 0L887.5 0C875 0 850 0 825 0C800 0 775 0 750 0C725 0 700 0 675 0C650 0 625 0 600 0C575 0 550 0 525 0C500 0 475 0 450 0C425 0 400 0 375 0C350 0 325 0 300 0C275 0 250 0 225 0C200 0 175 0 150 0C125 0 100 0 75 0C50 0 25 0 12.5 0L0 0Z" fill="#001b98"></path><path d="M0 85L12.5 88C25 91 50 97 75 94C100 91 125 79 150 77C175 75 200 83 225 81C250 79 275 67 300 66C325 65 350 75 375 77C400 79 425 73 450 72C475 71 500 75 525 72C550 69 575 59 600 61C625 63 650 77 675 87C700 97 725 103 750 105C775 107 800 105 825 95C850 85 875 67 887.5 58L900 49L900 23L887.5 23C875 23 850 23 825 25C800 27 775 31 750 36C725 41 700 47 675 45C650 43 625 33 600 32C575 31 550 39 525 42C500 45 475 43 450 42C425 41 400 41 375 38C350 35 325 29 300 26C275 23 250 23 225 26C200 29 175 35 150 36C125 37 100 33 75 30C50 27 25 25 12.5 24L0 23Z" fill="#002fa7"></path><path d="M0 133L12.5 138C25 143 50 153 75 154C100 155 125 147 150 144C175 141 200 143 225 141C250 139 275 133 300 132C325 131 350 135 375 132C400 129 425 119 450 122C475 125 500 141 525 139C550 137 575 117 600 114C625 111 650 125 675 136C700 147 725 155 750 163C775 171 800 179 825 165C850 151 875 115 887.5 97L900 79L900 47L887.5 56C875 65 850 83 825 93C800 103 775 105 750 103C725 101 700 95 675 85C650 75 625 61 600 59C575 57 550 67 525 70C500 73 475 69 450 70C425 71 400 77 375 75C350 73 325 63 300 64C275 65 250 77 225 79C200 81 175 73 150 75C125 77 100 89 75 92C50 95 25 89 12.5 86L0 83Z" fill="#0040b4"></path><path d="M0 217L12.5 221C25 225 50 233 75 249C100 265 125 289 150 293C175 297 200 281 225 267C250 253 275 241 300 237C325 233 350 237 375 250C400 263 425 285 450 287C475 289 500 271 525 249C550 227 575 201 600 205C625 209 650 243 675 254C700 265 725 253 750 256C775 259 800 277 825 271C850 265 875 235 887.5 220L900 205L900 77L887.5 95C875 113 850 149 825 163C800 177 775 169 750 161C725 153 700 145 675 134C650 123 625 109 600 112C575 115 550 135 525 137C500 139 475 123 450 120C425 117 400 127 375 130C350 133 325 129 300 130C275 131 250 137 225 139C200 141 175 139 150 142C125 145 100 153 75 152C50 151 25 141 12.5 136L0 131Z" fill="#0051c1"></path><path d="M0 289L12.5 295C25 301 50 313 75 324C100 335 125 345 150 349C175 353 200 351 225 349C250 347 275 345 300 342C325 339 350 335 375 335C400 335 425 339 450 339C475 339 500 335 525 320C550 305 575 279 600 279C625 279 650 305 675 315C700 325 725 319 750 324C775 329 800 345 825 345C850 345 875 329 887.5 321L900 313L900 203L887.5 218C875 233 850 263 825 269C800 275 775 257 750 254C725 251 700 263 675 252C650 241 625 207 600 203C575 199 550 225 525 247C500 269 475 287 450 285C425 283 400 261 375 248C350 235 325 231 300 235C275 239 250 251 225 265C200 279 175 295 150 291C125 287 100 263 75 247C50 231 25 223 12.5 219L0 215Z" fill="#0062cd"></path><path d="M0 313L12.5 317C25 321 50 329 75 341C100 353 125 369 150 375C175 381 200 377 225 376C250 375 275 377 300 374C325 371 350 363 375 362C400 361 425 367 450 368C475 369 500 365 525 347C550 329 575 297 600 294C625 291 650 317 675 330C700 343 725 343 750 350C775 357 800 371 825 371C850 371 875 357 887.5 350L900 343L900 311L887.5 319C875 327 850 343 825 343C800 343 775 327 750 322C725 317 700 323 675 313C650 303 625 277 600 277C575 277 550 303 525 318C500 333 475 337 450 337C425 337 400 333 375 333C350 333 325 337 300 340C275 343 250 345 225 347C200 349 175 351 150 347C125 343 100 333 75 322C50 311 25 299 12.5 293L0 287Z" fill="#0072d8"></path><path d="M0 337L12.5 342C25 347 50 357 75 367C100 377 125 387 150 394C175 401 200 405 225 404C250 403 275 397 300 392C325 387 350 383 375 386C400 389 425 399 450 399C475 399 500 389 525 370C550 351 575 323 600 324C625 325 650 355 675 366C700 377 725 369 750 372C775 375 800 389 825 393C850 397 875 391 887.5 388L900 385L900 341L887.5 348C875 355 850 369 825 369C800 369 775 355 750 348C725 341 700 341 675 328C650 315 625 289 600 292C575 295 550 327 525 345C500 363 475 367 450 366C425 365 400 359 375 360C350 361 325 369 300 372C275 375 250 373 225 374C200 375 175 379 150 373C125 367 100 351 75 339C50 327 25 319 12.5 315L0 311Z" fill="#0082e2"></path><path d="M0 367L12.5 370C25 373 50 379 75 390C100 401 125 417 150 426C175 435 200 437 225 437C250 437 275 435 300 428C325 421 350 409 375 410C400 411 425 425 450 425C475 425 500 411 525 394C550 377 575 357 600 359C625 361 650 385 675 391C700 397 725 385 750 386C775 387 800 401 825 409C850 417 875 419 887.5 420L900 421L900 383L887.5 386C875 389 850 395 825 391C800 387 775 373 750 370C725 367 700 375 675 364C650 353 625 323 600 322C575 321 550 349 525 368C500 387 475 397 450 397C425 397 400 387 375 384C350 381 325 385 300 390C275 395 250 401 225 402C200 403 175 399 150 392C125 385 100 375 75 365C50 355 25 345 12.5 340L0 335Z" fill="#0092eb"></path><path d="M0 391L12.5 392C25 393 50 395 75 407C100 419 125 441 150 453C175 465 200 467 225 464C250 461 275 453 300 443C325 433 350 421 375 422C400 423 425 437 450 440C475 443 500 435 525 421C550 407 575 387 600 387C625 387 650 407 675 411C700 415 725 403 750 406C775 409 800 427 825 437C850 447 875 449 887.5 450L900 451L900 419L887.5 418C875 417 850 415 825 407C800 399 775 385 750 384C725 383 700 395 675 389C650 383 625 359 600 357C575 355 550 375 525 392C500 409 475 423 450 423C425 423 400 409 375 408C350 407 325 419 300 426C275 433 250 435 225 435C200 435 175 433 150 424C125 415 100 399 75 388C50 377 25 371 12.5 368L0 365Z" fill="#00a1f2"></path><path d="M0 439L12.5 441C25 443 50 447 75 456C100 465 125 479 150 488C175 497 200 501 225 496C250 491 275 477 300 471C325 465 350 467 375 474C400 481 425 493 450 490C475 487 500 469 525 452C550 435 575 419 600 424C625 429 650 455 675 458C700 461 725 441 750 439C775 437 800 453 825 465C850 477 875 485 887.5 489L900 493L900 449L887.5 448C875 447 850 445 825 435C800 425 775 407 750 404C725 401 700 413 675 409C650 405 625 385 600 385C575 385 550 405 525 419C500 433 475 441 450 438C425 435 400 421 375 420C350 419 325 431 300 441C275 451 250 459 225 462C200 465 175 463 150 451C125 439 100 417 75 405C50 393 25 391 12.5 390L0 389Z" fill="#00b0f7"></path><path d="M0 589L12.5 589C25 589 50 589 75 585C100 581 125 573 150 573C175 573 200 581 225 583C250 585 275 581 300 577C325 573 350 569 375 570C400 571 425 577 450 579C475 581 500 579 525 576C550 573 575 569 600 570C625 571 650 577 675 580C700 583 725 583 750 583C775 583 800 583 825 580C850 577 875 571 887.5 568L900 565L900 491L887.5 487C875 483 850 475 825 463C800 451 775 435 750 437C725 439 700 459 675 456C650 453 625 427 600 422C575 417 550 433 525 450C500 467 475 485 450 488C425 491 400 479 375 472C350 465 325 463 300 469C275 475 250 489 225 494C200 499 175 495 150 486C125 477 100 463 75 454C50 445 25 441 12.5 439L0 437Z" fill="#00bffc"></path><path d="M0 601L12.5 601C25 601 50 601 75 601C100 601 125 601 150 601C175 601 200 601 225 601C250 601 275 601 300 601C325 601 350 601 375 601C400 601 425 601 450 601C475 601 500 601 525 601C550 601 575 601 600 601C625 601 650 601 675 601C700 601 725 601 750 601C775 601 800 601 825 601C850 601 875 601 887.5 601L900 601L900 563L887.5 566C875 569 850 575 825 578C800 581 775 581 750 581C725 581 700 581 675 578C650 575 625 569 600 568C575 567 550 571 525 574C500 577 475 579 450 577C425 575 400 569 375 568C350 567 325 571 300 575C275 579 250 583 225 581C200 579 175 571 150 571C125 571 100 579 75 583C50 587 25 587 12.5 587L0 587Z" fill="#0acdff"></path></svg>